<svg version="1.1" id="Layer_1" xmlns:x="ns_extend;" xmlns:i="ns_ai;" xmlns:graph="ns_graphs;" xmlns="http://www.w3.org/2000/svg" xmlns:xlink="http://www.w3.org/1999/xlink" x="0px" y="0px" viewBox="0 0 229 88" style="enable-background:new 0 0 229 88;" xml:space="preserve">
 <style type="text/css">
  .st0{fill-rule:evenodd;clip-rule:evenodd;fill:#FFFFFF;}
	.st1{fill:#282828;}
	.st2{fill-rule:evenodd;clip-rule:evenodd;fill:#FF6400;}
	.st3{filter:url(#Adobe_OpacityMaskFilter);}
	.st4{mask:url(#mask-2_1_);fill-rule:evenodd;clip-rule:evenodd;fill:#2D2D2D;}
	.st5{filter:url(#Adobe_OpacityMaskFilter_1_);}
	.st6{mask:url(#mask-2_2_);fill-rule:evenodd;clip-rule:evenodd;fill:#2D2D2D;}
	.st7{filter:url(#Adobe_OpacityMaskFilter_2_);}
	.st8{mask:url(#mask-2_3_);fill-rule:evenodd;clip-rule:evenodd;fill:#2D2D2D;}
	.st9{filter:url(#Adobe_OpacityMaskFilter_3_);}
	.st10{mask:url(#mask-2_4_);fill-rule:evenodd;clip-rule:evenodd;fill:#2D2D2D;}
	.st11{filter:url(#Adobe_OpacityMaskFilter_4_);}
	.st12{mask:url(#mask-2_5_);fill-rule:evenodd;clip-rule:evenodd;fill:#2D2D2D;}
	.st13{filter:url(#Adobe_OpacityMaskFilter_5_);}
	.st14{mask:url(#mask-2_6_);fill-rule:evenodd;clip-rule:evenodd;fill:#2D2D2D;}
 </style>
 <metadata>
  <sfw xmlns="ns_sfw;">
   <slices>
   </slices>
   <sliceSourceBounds bottomLeftOrigin="true" height="88" width="229" x="-130.4" y="0.1">
   </sliceSourceBounds>
  </sfw>
 </metadata>
 <g id="logo-en">
  <g id="编组">
   <path id="Fill-1" class="st0" d="M18.1,88C8.1,88,0,79.9,0,69.9V18.1C0,8.1,8.1,0,18.1,0h51.8C79.9,0,88,8.1,88,18.1v51.8
			c0,10-8.1,18.1-18.1,18.1H18.1z">
   </path>
   <g id="Stroke-3">
    <path class="st1" d="M69.9,88H18.1c-4.8,0-9.4-1.9-12.8-5.3C1.9,79.3,0,74.7,0,69.9V18.1c0-4.8,1.9-9.4,5.3-12.8S13.3,0,18.1,0
				h51.8c4.8,0,9.4,1.9,12.8,5.3c3.4,3.4,5.3,8,5.3,12.8v51.8c0,4.8-1.9,9.4-5.3,12.8C79.3,86.1,74.7,88,69.9,88z M18.1,1.2
				c-4.5,0-8.8,1.8-12,5s-5,7.5-5,12v51.8c0,4.5,1.8,8.8,5,12c3.2,3.2,7.5,5,12,5h51.8c4.5,0,8.8-1.8,12-5c3.2-3.2,5-7.5,5-12V18.1
				c0-4.5-1.8-8.8-5-12c-3.2-3.2-7.5-5-12-5H18.1z">
    </path>
   </g>
   <path id="Fill-5" class="st2" d="M45.2,60.1c10.7-0.3,19.1-8.8,19.2-19.3v-9h11.7v10C75.9,58,61.8,70.8,45.2,71.2v0
			c-16.8-0.1-31.1-13-31.3-29.5v-18c0-1.8,1.2-3,3-3l47.6,0v11l-37.3,0c-1,0-1.5,0.6-1.5,1.5v7.3C25.7,51.2,34.3,60,45.2,60.1
			L45.2,60.1z">
   </path>
   <g id="Clip-8">
   </g>
   <defs>
    <filter id="Adobe_OpacityMaskFilter" filterUnits="userSpaceOnUse" x="221.8" y="34.8" width="6.3" height="33.2">
     <feColorMatrix type="matrix" values="1 0 0 0 0  0 1 0 0 0  0 0 1 0 0  0 0 0 1 0">
     </feColorMatrix>
    </filter>
   </defs>
   <mask maskUnits="userSpaceOnUse" x="221.8" y="34.8" width="6.3" height="33.2" id="mask-2_1_">
    <g class="st3">
     <polygon id="path-1_1_" class="st0" points="-0.1,88.1 229,88.1 229,-0.1 -0.1,-0.1 				">
     </polygon>
    </g>
   </mask>
   <polygon id="Fill-7" class="st4" points="221.8,68 228.1,68 228.1,34.8 221.8,34.8 		">
   </polygon>
   <defs>
    <filter id="Adobe_OpacityMaskFilter_1_" filterUnits="userSpaceOnUse" x="174.7" y="20.8" width="38.8" height="47.2">
     <feColorMatrix type="matrix" values="1 0 0 0 0  0 1 0 0 0  0 0 1 0 0  0 0 0 1 0">
     </feColorMatrix>
    </filter>
   </defs>
   <mask maskUnits="userSpaceOnUse" x="174.7" y="20.8" width="38.8" height="47.2" id="mask-2_2_">
    <g class="st5">
     <polygon id="path-1_2_" class="st0" points="-0.1,88.1 229,88.1 229,-0.1 -0.1,-0.1 				">
     </polygon>
    </g>
   </mask>
   <path id="Fill-9" class="st6" d="M189.7,62.4c11.4,0,17.5-6,17.5-18c0-12.3-6.5-18-17.3-18h-8.9v35.9H189.7z M174.7,68V20.8h16.2
			c14.7,0,22.6,10.4,22.6,23.6c0,13.4-8.2,23.6-22.7,23.6H174.7z">
   </path>
   <defs>
    <filter id="Adobe_OpacityMaskFilter_2_" filterUnits="userSpaceOnUse" x="220.9" y="19.7" width="8.1" height="8.1">
     <feColorMatrix type="matrix" values="1 0 0 0 0  0 1 0 0 0  0 0 1 0 0  0 0 0 1 0">
     </feColorMatrix>
    </filter>
   </defs>
   <mask maskUnits="userSpaceOnUse" x="220.9" y="19.7" width="8.1" height="8.1" id="mask-2_3_">
    <g class="st7">
     <polygon id="path-1_3_" class="st0" points="-0.1,88.1 229,88.1 229,-0.1 -0.1,-0.1 				">
     </polygon>
    </g>
   </mask>
   <path id="Fill-10" class="st8" d="M220.9,23.7c0-2.2,1.8-4.1,4.1-4.1c2.2,0,4.1,1.8,4.1,4.1c0,2.2-1.8,4.1-4.1,4.1
			C222.7,27.8,220.9,26,220.9,23.7">
   </path>
   <defs>
    <filter id="Adobe_OpacityMaskFilter_3_" filterUnits="userSpaceOnUse" x="157.4" y="34.8" width="6.3" height="33.2">
     <feColorMatrix type="matrix" values="1 0 0 0 0  0 1 0 0 0  0 0 1 0 0  0 0 0 1 0">
     </feColorMatrix>
    </filter>
   </defs>
   <mask maskUnits="userSpaceOnUse" x="157.4" y="34.8" width="6.3" height="33.2" id="mask-2_4_">
    <g class="st9">
     <polygon id="path-1_4_" class="st0" points="-0.1,88.1 229,88.1 229,-0.1 -0.1,-0.1 				">
     </polygon>
    </g>
   </mask>
   <polygon id="Fill-11" class="st10" points="157.4,68 163.7,68 163.7,34.8 157.4,34.8 		">
   </polygon>
   <defs>
    <filter id="Adobe_OpacityMaskFilter_4_" filterUnits="userSpaceOnUse" x="110.1" y="20.8" width="38.8" height="47.2">
     <feColorMatrix type="matrix" values="1 0 0 0 0  0 1 0 0 0  0 0 1 0 0  0 0 0 1 0">
     </feColorMatrix>
    </filter>
   </defs>
   <mask maskUnits="userSpaceOnUse" x="110.1" y="20.8" width="38.8" height="47.2" id="mask-2_5_">
    <g class="st11">
     <polygon id="path-1_5_" class="st0" points="-0.1,88.1 229,88.1 229,-0.1 -0.1,-0.1 				">
     </polygon>
    </g>
   </mask>
   <path id="Fill-12" class="st12" d="M125,62.4c11.4,0,17.5-6,17.5-18c0-12.3-6.5-18-17.3-18h-8.9v35.9H125z M110.1,68V20.8h16.2
			c14.7,0,22.6,10.4,22.6,23.6c0,13.4-8.2,23.6-22.7,23.6H110.1z">
   </path>
   <defs>
    <filter id="Adobe_OpacityMaskFilter_5_" filterUnits="userSpaceOnUse" x="156.5" y="19.7" width="8.1" height="8.1">
     <feColorMatrix type="matrix" values="1 0 0 0 0  0 1 0 0 0  0 0 1 0 0  0 0 0 1 0">
     </feColorMatrix>
    </filter>
   </defs>
   <mask maskUnits="userSpaceOnUse" x="156.5" y="19.7" width="8.1" height="8.1" id="mask-2_6_">
    <g class="st13">
     <polygon id="path-1_6_" class="st0" points="-0.1,88.1 229,88.1 229,-0.1 -0.1,-0.1 				">
     </polygon>
    </g>
   </mask>
   <path id="Fill-13" class="st14" d="M156.5,23.7c0-2.2,1.8-4.1,4.1-4.1c2.2,0,4.1,1.8,4.1,4.1c0,2.2-1.8,4.1-4.1,4.1
			C158.3,27.8,156.5,26,156.5,23.7">
   </path>
  </g>
 </g>
</svg>