<svg width="128" height="39" viewBox="0 0 128 39" fill="none" xmlns="http://www.w3.org/2000/svg">
<path d="M36.3537 17.2637H38.7474C38.8955 17.2637 39.0151 17.3838 39.0151 17.5323V30.4949H36.0466V17.5718C36.0466 17.4011 36.1836 17.2637 36.3537 17.2637Z" fill="#1F2A44"/>
<path d="M41.7333 21.0396C41.7333 20.9179 41.8152 20.8121 41.9317 20.7805C42.3821 20.662 42.9381 20.5498 43.5979 20.4439C44.3586 20.3238 45.1586 20.2622 45.9964 20.2622C46.8342 20.2622 47.5539 20.3744 48.1177 20.5956C48.6815 20.8184 49.1288 21.1328 49.4595 21.5405C49.7886 21.9481 50.0233 22.4316 50.1634 22.9909C50.3036 23.5518 50.3729 24.1744 50.3729 24.8617V30.5324H47.5382V25.2061C47.5382 24.2897 47.4169 23.6403 47.176 23.258C46.935 22.8756 46.4846 22.6844 45.8247 22.6844C45.6216 22.6844 45.4058 22.6939 45.1775 22.7128C44.9491 22.7318 44.746 22.7539 44.568 22.7792V30.5309H41.7333V21.0348V21.0396Z" fill="#1F2A44"/>
<path d="M53.2171 17.9146L55.4959 17.5465C55.6659 17.5196 55.8203 17.6507 55.8203 17.8246V20.4537H58.9652C59.1101 20.4537 59.2267 20.5707 59.2267 20.716V22.5694C59.2267 22.7084 59.1148 22.8206 58.9763 22.8206H55.8203V26.3536C55.8203 26.9524 55.9242 27.4296 56.1337 27.7851C56.3431 28.1422 56.7652 28.3191 57.3998 28.3191C57.7038 28.3191 58.0188 28.2907 58.3416 28.2338C58.6644 28.1769 58.9605 28.0979 59.2267 27.9952L59.6267 30.2104C59.2834 30.3511 58.9038 30.4712 58.4849 30.5739C58.066 30.675 57.5526 30.7271 56.9431 30.7271C56.1699 30.7271 55.5289 30.6228 55.0218 30.4127C54.5147 30.2025 54.1084 29.9102 53.8045 29.5342C53.5005 29.1597 53.2879 28.7031 53.1667 28.169C53.0454 27.635 52.9856 27.0425 52.9856 26.3931V18.1911C52.9856 18.0552 53.0848 17.9383 53.2186 17.9162L53.2171 17.9146Z" fill="#1F2A44"/>
<path d="M78.35 22.697C78.32 22.8471 78.172 22.9419 78.024 22.9087C77.835 22.8644 77.6271 22.8202 77.3988 22.7728C77.057 22.7033 76.6885 22.6685 76.2948 22.6685C76.1168 22.6685 75.9042 22.6843 75.657 22.7159C75.4097 22.7475 75.2223 22.7823 75.0963 22.8202V30.496H72.2616V21.1754C72.2616 21.0632 72.3325 20.9621 72.438 20.9273C72.9057 20.7709 73.4475 20.6224 74.0601 20.4818C74.7514 20.3222 75.5215 20.2432 76.372 20.2432C76.5247 20.2432 76.7074 20.2526 76.9232 20.2716C77.1389 20.2906 77.3547 20.3158 77.5704 20.3474C77.7862 20.379 78.0019 20.417 78.2177 20.4612C78.3342 20.4849 78.4397 20.5118 78.5374 20.5418C78.6697 20.5813 78.75 20.7156 78.7232 20.8515L78.35 22.6954V22.697Z" fill="#1F2A44"/>
<path d="M89.1487 18.6761C89.2636 18.6761 89.366 18.752 89.3975 18.8641C89.5345 19.3381 89.6841 19.8643 89.8463 20.4426C90.0306 21.0983 90.2258 21.7761 90.4353 22.4761C90.6447 23.176 90.8558 23.876 91.0715 24.576C91.2873 25.2759 91.4952 25.9253 91.6983 26.5241C91.8637 25.8747 92.0322 25.1685 92.2054 24.4053C92.3771 23.6422 92.5393 22.8521 92.692 22.0384C92.8448 21.2247 92.9944 20.4126 93.1409 19.6036C93.2732 18.872 93.3991 18.1626 93.5157 17.4784C93.5362 17.3552 93.6432 17.2651 93.7692 17.2651H96.311C96.4795 17.2651 96.6055 17.4184 96.5709 17.5843C96.1394 19.6952 95.648 21.8362 95.0953 24.0056C94.5141 26.284 93.8858 28.4486 93.2102 30.4963H90.4951C90.0526 29.275 89.6211 27.992 89.2038 26.649C88.7864 25.3059 88.3738 23.9597 87.9691 22.6104C87.5628 23.9597 87.1565 25.3059 86.7502 26.649C86.3439 27.992 85.9186 29.275 85.473 30.4963H82.7595C82.0839 28.447 81.4571 26.284 80.8776 24.0056C80.3248 21.833 79.8335 19.6905 79.402 17.5748C79.3689 17.4152 79.4917 17.2651 79.6555 17.2651H82.3233C82.4587 17.2651 82.5721 17.3615 82.5957 17.4942C82.7123 18.1737 82.8398 18.8768 82.9768 19.6036C83.1296 20.4126 83.2887 21.2231 83.4556 22.0384C83.621 22.8537 83.7895 23.6422 83.9627 24.4053C84.1344 25.1685 84.3107 25.8747 84.4887 26.5241C84.717 25.9 84.9391 25.238 85.1564 24.538C85.3722 23.8381 85.5816 23.1381 85.7864 22.4382C85.9895 21.7382 86.1769 21.0635 86.3486 20.4141C86.4982 19.8501 86.6352 19.3381 86.7612 18.8784C86.7943 18.7583 86.9013 18.6761 87.0258 18.6761C87.5061 18.6761 88.6856 18.6761 89.1534 18.6761H89.1487Z" fill="#1F2A44"/>
<path d="M101.259 20.2246C102.097 20.2246 102.795 20.3194 103.352 20.5106C103.91 20.7018 104.357 20.9751 104.694 21.3322C105.029 21.6893 105.267 22.1222 105.407 22.631C105.548 23.1398 105.617 23.707 105.617 24.3295V30.2484C105.211 30.3368 104.647 30.4427 103.922 30.5628C103.199 30.6829 102.324 30.7445 101.295 30.7445C100.648 30.7445 100.061 30.6876 99.5348 30.5723C99.0088 30.4585 98.5552 30.2705 98.1741 30.0098C97.793 29.7491 97.5017 29.4078 97.2985 28.9891C97.0954 28.5688 96.9946 28.0537 96.9946 27.4422C96.9946 26.8307 97.1111 26.3599 97.3473 25.9522C97.582 25.5446 97.8954 25.2207 98.2891 24.9789C98.6828 24.7372 99.1332 24.5618 99.6403 24.4544C100.147 24.3469 100.673 24.2916 101.22 24.2916C101.588 24.2916 101.914 24.3074 102.199 24.339C102.484 24.3706 102.716 24.4117 102.894 24.4638V24.1968C102.894 23.7133 102.747 23.3246 102.456 23.0323C102.165 22.74 101.658 22.5931 100.933 22.5931C100.451 22.5931 99.9757 22.6278 99.5064 22.6974C99.171 22.7479 98.8671 22.8127 98.5978 22.8917C98.434 22.9391 98.2639 22.8364 98.2371 22.6673L97.9647 20.9419C97.9426 20.8045 98.0292 20.6718 98.1631 20.6354C98.2765 20.6054 98.404 20.5738 98.5458 20.5406C98.793 20.4837 99.0623 20.4332 99.3553 20.3874C99.6466 20.3431 99.9553 20.3052 100.278 20.272C100.601 20.2404 100.929 20.2246 101.258 20.2246H101.259ZM101.488 28.5498C101.766 28.5498 102.032 28.5435 102.286 28.5309C102.54 28.5182 102.743 28.4993 102.895 28.474V26.3172C102.781 26.2919 102.61 26.2667 102.382 26.2414C102.154 26.2161 101.944 26.2035 101.754 26.2035C101.488 26.2035 101.237 26.2193 101.003 26.2509C100.768 26.2825 100.562 26.3441 100.384 26.4326C100.206 26.521 100.067 26.6427 99.9647 26.796C99.8624 26.9492 99.812 27.1404 99.812 27.3695C99.812 27.8151 99.9616 28.1232 100.259 28.2954C100.557 28.4677 100.966 28.553 101.486 28.553L101.488 28.5498Z" fill="#1F2A44"/>
<path d="M114.409 22.7017C114.379 22.8486 114.234 22.9419 114.088 22.9087C113.899 22.8644 113.689 22.8186 113.459 22.7728C113.116 22.7033 112.749 22.6685 112.356 22.6685C112.178 22.6685 111.965 22.6843 111.718 22.7159C111.47 22.7475 111.283 22.7823 111.157 22.8202V30.496H108.322V21.1849C108.322 21.0679 108.396 20.9621 108.508 20.9242C108.974 20.7693 109.511 20.6224 110.121 20.4818C110.812 20.3222 111.582 20.2432 112.433 20.2432C112.585 20.2432 112.768 20.2526 112.984 20.2716C113.2 20.2906 113.415 20.3158 113.631 20.3474C113.847 20.379 114.063 20.417 114.278 20.4612C114.389 20.4849 114.491 20.5102 114.585 20.5371C114.726 20.5781 114.811 20.7203 114.781 20.8641L114.409 22.7001V22.7017Z" fill="#1F2A44"/>
<path d="M115.688 25.5507C115.688 24.6596 115.823 23.8806 116.097 23.2123C116.37 22.5439 116.729 21.9878 117.173 21.5422C117.617 21.0966 118.127 20.7601 118.705 20.531C119.283 20.3019 119.875 20.1865 120.485 20.1865C121.905 20.1865 123.028 20.6226 123.853 21.4948C124.679 22.367 125.09 23.65 125.09 25.3422C125.09 25.5081 125.083 25.6898 125.071 25.8857C125.068 25.9442 125.063 26.0026 125.06 26.0564C125.046 26.2554 124.88 26.4103 124.68 26.4103H118.601C118.664 26.9965 118.937 27.461 119.42 27.8039C119.902 28.1483 120.549 28.319 121.362 28.319C121.882 28.319 122.392 28.2716 122.894 28.1752C123.246 28.1088 123.553 28.0298 123.814 27.9413C123.978 27.886 124.149 27.9903 124.178 28.161L124.463 29.8911C124.487 30.0365 124.408 30.1802 124.269 30.234C124.159 30.2766 124.035 30.3193 123.893 30.3619C123.639 30.4378 123.357 30.5057 123.046 30.5626C122.735 30.6195 122.401 30.6669 122.047 30.7064C121.691 30.7443 121.337 30.7633 120.981 30.7633C120.08 30.7633 119.297 30.629 118.631 30.3619C117.965 30.0949 117.414 29.7284 116.976 29.2638C116.538 28.7993 116.215 28.2494 116.006 27.6127C115.797 26.9759 115.693 26.2886 115.693 25.5507H115.688ZM122.348 24.4621C122.335 24.2204 122.294 23.9849 122.223 23.7558C122.154 23.5267 122.046 23.3229 121.901 23.1443C121.754 22.9658 121.57 22.8204 121.349 22.7051C121.127 22.5913 120.852 22.5329 120.521 22.5329C120.19 22.5329 119.93 22.5866 119.702 22.6956C119.474 22.8046 119.283 22.9468 119.13 23.1254C118.978 23.3039 118.861 23.5109 118.778 23.7463C118.696 23.9818 118.634 24.2204 118.597 24.4621H122.345H122.348Z" fill="#1F2A44"/>
<path d="M2.9119 7.68064C2.9119 9.75996 4.59383 11.4459 6.66474 11.4459C8.73566 11.4459 10.416 9.76154 10.416 7.68064C10.416 5.59973 8.73724 3.91699 6.66474 3.91699C4.59225 3.91699 2.9119 5.60131 2.9119 7.68064Z" fill="#E42931"/>
<path d="M14.3925 32.3164C14.3925 32.3416 14.3893 32.3638 14.383 32.3859C14.3752 32.4048 14.3689 32.4222 14.361 32.4412C13.972 33.4319 13.2712 34.3293 12.298 34.7544C11.8145 34.9661 11.2822 35.083 10.7215 35.083C10.5074 35.083 10.2948 35.0656 10.09 35.0324C10.09 35.0324 10.0239 35.0214 10.0223 35.0214C9.71679 34.9692 9.42544 34.8902 9.14984 34.7891C3.92609 32.8694 3.85522 22.6939 3.85522 22.1378V13.6087C3.85522 13.1695 4.18594 12.6797 4.77966 12.6797C4.8773 12.6797 8.04903 12.6797 8.22384 12.6797C8.60022 12.6797 9.14984 12.9957 9.14984 13.6087C9.14984 13.6087 8.94669 21.8107 9.14984 25.0198C9.20024 25.8193 9.27583 26.6298 9.38607 27.4104C9.62072 29.082 10.0129 30.6147 10.6554 31.5801C10.6554 31.5801 10.657 31.5832 10.6585 31.5832C10.7735 31.7586 10.8979 31.9135 11.0318 32.0493C11.3877 32.4112 11.8176 32.6102 12.2964 32.645C12.3751 32.6529 12.4539 32.6482 12.5342 32.6482C13.0696 32.6482 13.561 32.4554 13.9421 32.1347C13.9547 32.1236 13.9657 32.1141 13.9783 32.1031C14.0224 32.0715 14.0744 32.0525 14.1311 32.0525C14.276 32.0525 14.3941 32.171 14.3941 32.3164H14.3925Z" fill="#1F2A44"/>
<path d="M25.429 12.6797C24.988 12.6797 22.8069 12.6797 21.9848 12.6797C21.3848 12.675 21.0588 13.1743 21.0588 13.6088C21.0588 14.0433 21.1486 22.9515 21.0588 26.0768C21.0194 26.5524 20.969 27.0106 20.9045 27.4388C20.7297 28.6065 20.4509 29.5434 20.0194 29.9479C20.0162 29.9527 19.9375 30.019 19.9281 30.0269C19.9186 30.0332 19.8855 30.0554 19.8777 30.0601C19.8666 30.068 19.7926 30.1059 19.7816 30.1107C19.6903 30.1517 19.5926 30.1723 19.4903 30.1691C19.4052 30.1707 19.3233 30.1565 19.2477 30.128C19.2462 30.128 19.2257 30.1186 19.2162 30.1154C19.1107 30.0712 19.0099 29.9969 18.9186 29.9005L18.9154 29.8958C18.5138 29.4644 18.2524 28.5607 18.0855 27.4436C18.0209 27.017 17.9753 26.5587 17.9375 26.0832C17.9375 26.0832 17.9123 13.8426 17.9123 13.6088C17.9154 13.288 17.6981 12.6797 16.9878 12.6797C16.8461 12.6687 13.657 12.6797 13.5436 12.6797C12.9625 12.6797 12.6192 13.0858 12.6192 13.6088C12.6192 13.7826 12.6192 27.5052 12.6192 27.5052C12.6192 27.5052 12.605 27.9018 12.6192 28.2683C12.6192 28.5812 12.6224 28.8561 12.6318 29.0947C12.6318 29.0994 12.6318 29.1026 12.6318 29.1058C12.6318 29.131 12.6287 29.1579 12.6287 29.1832C12.6287 29.2685 12.6365 29.3507 12.6491 29.4312C12.6491 29.436 12.6491 29.4407 12.6491 29.4439C12.7751 30.2213 13.4444 30.8154 14.2539 30.8154H14.2571H14.2649C14.6649 30.8169 15.235 30.7806 15.235 30.7806C15.3736 30.7727 15.5216 30.8375 15.5516 31.1298C15.75 32.7572 16.5217 34.1413 17.9123 34.7512C18.3957 34.9645 18.9312 35.0815 19.4918 35.0815C19.7123 35.0815 19.9296 35.0625 20.1407 35.0277V35.0309C20.4635 34.9788 20.769 34.8997 21.0588 34.7955C25.525 33.1791 26.24 25.5396 26.3534 22.9626V13.6072C26.3534 13.1727 25.9629 12.6734 25.4274 12.6781L25.429 12.6797Z" fill="#1F2A44"/>
<path d="M60.6724 25.5507C60.6724 24.6596 60.8078 23.8806 61.0818 23.2123C61.3543 22.5439 61.7133 21.9878 62.1574 21.5422C62.6015 21.0966 63.1118 20.7601 63.6898 20.531C64.2677 20.3019 64.8599 20.1865 65.4693 20.1865C66.8898 20.1865 68.0127 20.6226 68.8379 21.4948C69.6631 22.367 70.0742 23.65 70.0742 25.3422C70.0742 25.5081 70.0679 25.6898 70.0553 25.8857C70.0521 25.9442 70.0474 26.0026 70.0442 26.0564C70.0301 26.2554 69.8647 26.4103 69.6647 26.4103H63.5858C63.6488 26.9965 63.9213 27.461 64.4047 27.8039C64.8866 28.1483 65.5339 28.319 66.3465 28.319C66.8662 28.319 67.3765 28.2716 67.8788 28.1752C68.23 28.1088 68.5371 28.0298 68.7985 27.9413C68.9623 27.886 69.134 27.9903 69.1623 28.161L69.4474 29.8911C69.471 30.0365 69.3923 30.1802 69.2537 30.234C69.1434 30.2766 69.019 30.3193 68.8773 30.3619C68.6237 30.4378 68.3418 30.5057 68.03 30.5626C67.7198 30.6195 67.3859 30.6669 67.0316 30.7064C66.6757 30.7443 66.3213 30.7633 65.9654 30.7633C65.0646 30.7633 64.2819 30.629 63.6157 30.3619C62.9496 30.0949 62.3984 29.7284 61.9606 29.2638C61.5228 28.7993 61.1999 28.2494 60.9905 27.6127C60.781 26.9759 60.6771 26.2886 60.6771 25.5507H60.6724ZM67.3324 24.4621C67.3198 24.2204 67.2788 23.9849 67.208 23.7558C67.1387 23.5267 67.03 23.3229 66.8851 23.1443C66.7386 22.9658 66.5544 22.8204 66.3339 22.7051C66.1119 22.5913 65.8363 22.5329 65.5056 22.5329C65.1748 22.5329 64.915 22.5866 64.6866 22.6956C64.4583 22.8046 64.2677 22.9468 64.115 23.1254C63.9622 23.3039 63.8457 23.5109 63.7622 23.7463C63.6803 23.9818 63.6189 24.2204 63.5811 24.4621H67.3292H67.3324Z" fill="#1F2A44"/>
</svg>
